HIERARCHY
ROOT Hips
{
	OFFSET 0.000000 0.000000 0.000000
	CHANNELS 6 Xposition Yposition Zposition Zrotation Yrotation Xrotation 
	JOINT LHipJoint
	{
		OFFSET 0.000000 0.000000 0.000000
		CHANNELS 3 Zrotation Yrotation Xrotation
		JOINT LeftUpLeg
		{
			OFFSET 1.363060 -1.794630 0.839290
			CHANNELS 3 Zrotation Yrotation Xrotation
			JOINT LeftLeg
			{
				OFFSET 2.448110 -6.726130 0.000000
				CHANNELS 3 Zrotation Yrotation Xrotation
				JOINT LeftFoot
				{
					OFFSET 2.562200 -7.039590 0.000000
					CHANNELS 3 Zrotation Yrotation Xrotation
					JOINT LeftToeBase
					{
						OFFSET 0.157640 -0.433110 2.322550
						CHANNELS 3 Zrotation Yrotation Xrotation
						End Site
						{
							OFFSET 0.000000 0.000000 0.000000
						}
					}
				}
			}
		}
	}
	JOINT RHipJoint
	{
		OFFSET 0.000000 0.000000 0.000000
		CHANNELS 3 Zrotation Yrotation Xrotation
		JOINT RightUpLeg
		{
			OFFSET -1.305520 -1.794630 0.839290
			CHANNELS 3 Zrotation Yrotation Xrotation
			JOINT RightLeg
			{
				OFFSET -2.542530 -6.985550 0.000000
				CHANNELS 3 Zrotation Yrotation Xrotation
				JOINT RightFoot
				{
					OFFSET -2.568260 -7.056230 0.000000
					CHANNELS 3 Zrotation Yrotation Xrotation
					JOINT RightToeBase
					{
						OFFSET -0.164730 -0.452590 2.363150
						CHANNELS 3 Zrotation Yrotation Xrotation
						End Site
						{
							OFFSET 0.000000 0.000000 0.000000
						}
					}
				}
			}
		}
	}
	JOINT LowerBack
	{
		OFFSET 0.000000 0.000000 0.000000
		CHANNELS 3 Zrotation Yrotation Xrotation
		JOINT Spine
		{
			OFFSET 0.028270 2.035590 -0.193380
			CHANNELS 3 Zrotation Yrotation Xrotation
			JOINT Spine1
			{
				OFFSET 0.056720 2.048850 -0.042750
				CHANNELS 3 Zrotation Yrotation Xrotation
				JOINT Neck
				{
					OFFSET 0.000000 0.000000 0.000000
					CHANNELS 3 Zrotation Yrotation Xrotation
					JOINT Neck1
					{
						OFFSET -0.054170 1.746240 0.172020
						CHANNELS 3 Zrotation Yrotation Xrotation
						JOINT Head
						{
							OFFSET 0.104070 1.761360 -0.123970
							CHANNELS 3 Zrotation Yrotation Xrotation
							End Site
							{
								OFFSET 0.000000 0.000000 0.000000
							}
						}
					}
				}
				JOINT LeftShoulder
				{
					OFFSET 0.000000 0.000000 0.000000
					CHANNELS 3 Zrotation Yrotation Xrotation
					JOINT LeftArm
					{
						OFFSET 3.362410 1.200890 -0.311210
						CHANNELS 3 Zrotation Yrotation Xrotation
						JOINT LeftForeArm
						{
							OFFSET 4.983000 -0.000000 -0.000000
							CHANNELS 3 Zrotation Yrotation Xrotation
							JOINT LeftHand
							{
								OFFSET 3.483560 -0.000000 -0.000000
								CHANNELS 3 Zrotation Yrotation Xrotation
								JOINT LeftFingerBase
								{
									OFFSET 0.000000 0.000000 0.000000
									CHANNELS 3 Zrotation Yrotation Xrotation
									JOINT LeftHandIndex1
									{
										OFFSET 0.715260 -0.000000 -0.000000
										CHANNELS 3 Zrotation Yrotation Xrotation
										End Site
										{
											OFFSET 0.000000 0.000000 0.000000
										}
									}
								}
								JOINT LThumb
								{
									OFFSET 0.000000 0.000000 0.000000
									CHANNELS 3 Zrotation Yrotation Xrotation
									End Site
									{
										OFFSET 0.000000 0.000000 0.000000
									}
								}
							}
						}
					}
				}
				JOINT RightShoulder
				{
					OFFSET 0.000000 0.000000 0.000000
					CHANNELS 3 Zrotation Yrotation Xrotation
					JOINT RightArm
					{
						OFFSET -3.136600 1.374050 -0.404650
						CHANNELS 3 Zrotation Yrotation Xrotation
						JOINT RightForeArm
						{
							OFFSET -5.241900 -0.000000 -0.000000
							CHANNELS 3 Zrotation Yrotation Xrotation
							JOINT RightHand
							{
								OFFSET -3.444170 -0.000000 -0.000000
								CHANNELS 3 Zrotation Yrotation Xrotation
								JOINT RightFingerBase
								{
									OFFSET 0.000000 0.000000 0.000000
									CHANNELS 3 Zrotation Yrotation Xrotation
									JOINT RightHandIndex1
									{
										OFFSET -0.622530 -0.000000 -0.000000
										CHANNELS 3 Zrotation Yrotation Xrotation
										End Site
										{
											OFFSET 0.000000 0.000000 0.000000
										}
									}
								}
								JOINT RThumb
								{
									OFFSET 0.000000 0.000000 0.000000
									CHANNELS 3 Zrotation Yrotation Xrotation
									End Site
									{
										OFFSET 0.000000 0.000000 0.000000
									}
								}
							}
						}
					}
				}
			}
		}
	}
}
MOTION
Frames: 7
Frame Time: 0.033333
1.480263 17.830340 13.191197 -2.154908 13.127890 6.886570 0.017608 15.317251 -5.484986 -23.258284 -7.266249 -8.801232 3.758363 3.567470 20.666244 0.251045 -9.396856 -19.013729 0.000000 0.000000 0.000000 -4.306956 -27.421759 -1.234081 34.597794 14.045211 -10.455525 -1.456534 0.316943 21.649199 -3.381432 14.539542 -23.662695 0.000000 0.000000 0.000000 4.674022 3.307189 14.026922 2.298563 3.218074 -2.408647 -13.330094 5.326720 -7.903407 7.087444 -0.616720 1.556522 4.036806 -0.209774 6.115805 0.000000 0.000000 0.000000 6.332769 2.681977 7.104428 -64.739112 -12.866488 4.433242 -50.941758 -21.616682 0.092971 -2.373800 -7.484133 0.045942 -2.363895 -7.489601 0.000000 0.000000 0.000000 0.000000 0.000000 0.000000 0.000000 -25.212041 -10.482278 -16.301477 89.586867 43.284673 7.654138 -43.775119 68.030207 0.226942 0.834545 -0.451027 0.115098 0.853154 -0.435478 0.000000 0.000000 0.000000 0.000000 0.000000 0.000000 0.000000 
1.513102 17.823545 13.431854 -2.186910 13.352487 6.906162 -0.257304 14.745100 -5.489909 -22.723808 -7.245641 -8.714583 4.137792 3.885915 21.865030 0.245372 -9.668545 -19.751174 0.000000 0.000000 0.000000 -3.974025 -26.771356 -1.470321 33.781995 13.858735 -10.371182 -1.130752 -0.474117 22.934330 -3.497721 14.589988 -25.492914 0.000000 0.000000 0.000000 4.627694 3.301551 14.279500 2.303907 3.191646 -2.525761 -13.304273 5.295649 -8.035960 7.118285 -0.606718 1.757738 4.096797 -0.214071 6.227960 0.000000 0.000000 0.000000 6.341830 2.833454 6.977869 -64.840600 -13.024818 4.229860 -50.800711 -20.615619 0.083571 -2.375518 -7.332134 0.041270 -2.365782 -7.337478 0.000000 0.000000 0.000000 0.000000 0.000000 0.000000 0.000000 -25.242058 -10.699603 -16.411952 89.504239 43.312751 7.702799 -43.566932 67.840690 0.226559 0.832533 -0.452519 0.114896 0.851080 -0.437054 0.000000 0.000000 0.000000 0.000000 0.000000 0.000000 0.000000 
1.541967 17.803829 13.667128 -2.232774 13.623947 6.841537 -0.494325 14.145995 -5.559803 -22.230245 -7.036604 -8.392623 4.619655 4.254359 23.036677 0.269745 -10.055004 -20.969404 0.000000 0.000000 0.000000 -3.720062 -26.026523 -1.831913 33.040559 13.479770 -10.013150 -0.724565 -1.278336 24.067482 -3.586043 14.616688 -27.348731 0.000000 0.000000 0.000000 4.575301 3.271730 14.651399 2.321977 3.149871 -2.665643 -13.252404 5.253303 -8.147162 7.144335 -0.598594 1.937361 4.158500 -0.218172 6.337846 0.000000 0.000000 0.000000 6.408702 2.959808 6.852586 -64.974544 -13.193941 4.060983 -50.688702 -19.762199 0.075449 -2.378397 -7.201154 0.037231 -2.368813 -7.206391 0.000000 0.000000 0.000000 0.000000 0.000000 0.000000 0.000000 -25.297970 -10.920540 -16.541495 89.373305 43.388700 7.731300 -43.350686 67.596287 0.225632 0.830476 -0.453730 0.114417 0.848914 -0.438382 0.000000 0.000000 0.000000 0.000000 0.000000 0.000000 0.000000 
1.566938 17.771200 13.896759 -2.269253 13.927378 6.710412 -0.640250 13.516732 -5.672447 -21.861489 -6.702875 -7.826229 5.126736 4.536672 23.963958 0.300723 -10.496605 -22.259309 0.000000 0.000000 0.000000 -3.546154 -25.201940 -2.300467 32.357056 12.949244 -9.424886 -0.233464 -2.096432 25.081067 -3.648407 14.636137 -29.236788 0.000000 0.000000 0.000000 4.494684 3.224853 15.127584 2.349798 3.094218 -2.822151 -13.174392 5.200586 -8.238535 7.164065 -0.592716 2.094618 4.221744 -0.222111 6.445201 0.000000 0.000000 0.000000 6.534176 3.062637 6.728018 -65.139499 -13.374403 3.929892 -50.609461 -19.057032 0.068627 -2.381964 -7.091667 0.033837 -2.372509 -7.096815 0.000000 0.000000 0.000000 0.000000 0.000000 0.000000 0.000000 -25.379384 -11.142103 -16.689084 89.192761 43.515366 7.739024 -43.128434 67.295813 0.224101 0.828443 -0.454631 0.113632 0.846720 -0.439434 0.000000 0.000000 0.000000 0.000000 0.000000 0.000000 0.000000 
1.587516 17.725173 14.120270 -2.295065 14.279127 6.503785 -0.696839 12.853252 -5.829890 -21.621359 -6.243988 -7.006849 5.672470 4.727432 24.646482 0.341422 -11.006854 -23.642298 0.000000 0.000000 0.000000 -3.455730 -24.273505 -2.892354 31.721775 12.244087 -8.583302 0.366152 -2.940295 25.959374 -3.682220 14.646836 -31.165925 0.000000 0.000000 0.000000 4.387699 3.155144 15.718622 2.387227 3.019903 -2.993897 -13.067584 5.133526 -8.307019 7.175421 -0.589243 2.226220 4.286808 -0.225888 6.549974 0.000000 0.000000 0.000000 6.725770 3.137653 6.603596 -65.337035 -13.569214 3.837724 -50.572895 -18.511582 0.063087 -2.386577 -7.005036 0.031080 -2.377222 -7.010115 0.000000 0.000000 0.000000 0.000000 0.000000 0.000000 0.000000 -25.489363 -11.364750 -16.855458 88.954859 43.699763 7.721529 -42.899176 66.931878 0.221865 0.826330 -0.455131 0.112489 0.844385 -0.440122 0.000000 0.000000 0.000000 0.000000 0.000000 0.000000 0.000000 
1.608528 17.668683 14.341356 -2.317963 14.644684 6.288066 -0.757489 12.247090 -5.984553 -21.409828 -5.826003 -6.222872 6.258814 4.920290 25.441543 0.391573 -11.563774 -25.104309 0.000000 0.000000 0.000000 -3.394448 -23.338623 -3.465945 31.074406 11.529644 -7.706316 1.085787 -3.786030 26.782990 -3.694863 14.692763 -33.108286 0.000000 0.000000 0.000000 4.303697 3.069123 16.290145 2.418185 2.934345 -3.138439 -12.961632 5.057068 -8.368828 7.182269 -0.587399 2.344583 4.344668 -0.229458 6.647866 0.000000 0.000000 0.000000 6.919032 3.198420 6.488305 -65.524521 -13.753796 3.777665 -50.558028 -18.080931 0.058804 -2.391097 -6.936491 0.028949 -2.381824 -6.941519 0.000000 0.000000 0.000000 0.000000 0.000000 0.000000 0.000000 -25.597655 -11.580181 -17.018016 88.718518 43.885700 7.702677 -42.679643 66.573878 0.219671 0.824123 -0.455399 0.111368 0.841964 -0.440571 0.000000 0.000000 0.000000 0.000000 0.000000 0.000000 0.000000 
1.630233 17.601650 14.560296 -2.338496 15.020417 6.067026 -0.825556 11.697010 -6.137142 -21.220510 -5.452071 -5.484133 6.886669 5.118942 26.364245 0.452935 -12.164774 -26.645838 0.000000 0.000000 0.000000 -3.357001 -22.397677 -4.015219 30.406050 10.813916 -6.804047 1.936968 -4.633605 27.551254 -3.689329 14.783173 -35.065867 0.000000 0.000000 0.000000 4.242218 2.966865 16.838936 2.443728 2.839000 -3.260219 -12.856530 4.972452 -8.422075 7.183441 -0.587121 2.450213 4.395905 -0.232895 6.738963 0.000000 0.000000 0.000000 7.115000 3.244202 6.383657 -65.700047 -13.925794 3.754563 -50.571752 -17.782175 0.055944 -2.395790 -6.888772 0.027525 -2.386574 -6.893769 0.000000 0.000000 0.000000 0.000000 0.000000 0.000000 0.000000 -25.703726 -11.787110 -17.176299 88.486176 44.071495 7.684252 -42.470766 66.224093 0.217552 0.821881 -0.455451 0.110287 0.839515 -0.440793 0.000000 0.000000 0.000000 0.000000 0.000000 0.000000 0.000000 
